<svg width="206" height="153" viewBox="0 0 206 153" fill="none" xmlns="http://www.w3.org/2000/svg">
<path d="M30.925 124.297C29.4439 130.445 24.254 134.286 24.254 134.286C24.254 134.286 21.4654 128.161 22.9465 122.014C24.4276 115.867 29.6175 112.025 29.6175 112.025C29.6175 112.025 32.4061 118.15 30.925 124.297Z" fill="#1ED3DB"/>
<path d="M28.6785 122.997C24.5302 127.464 24.0661 134.283 24.0661 134.283C24.0661 134.283 30.3278 133.859 34.4761 129.393C38.6245 124.926 39.0886 118.107 39.0886 118.107C39.0886 118.107 32.8269 118.53 28.6785 122.997Z" fill="#00ADB5"/>
<path d="M33.8807 132.486H17.6539C15.874 132.486 14.4312 134.059 14.4312 135.999V139.489C14.4312 141.429 15.874 143.001 17.6539 143.001H33.8807C35.6605 143.001 37.1034 141.429 37.1034 139.489V135.999C37.1034 134.059 35.6605 132.486 33.8807 132.486Z" fill="#00ADB5"/>
<path d="M189.336 126.362C188.52 126.362 187.722 126.626 187.043 127.12C186.365 127.614 185.836 128.317 185.524 129.139C185.211 129.96 185.13 130.865 185.289 131.737C185.448 132.609 185.841 133.411 186.418 134.04C186.995 134.669 187.73 135.097 188.531 135.27C189.331 135.444 190.161 135.355 190.915 135.015C191.669 134.674 192.313 134.098 192.767 133.358C193.22 132.619 193.462 131.749 193.462 130.86C193.462 129.667 193.028 128.523 192.254 127.68C191.48 126.836 190.43 126.362 189.336 126.362ZM189.336 133.627C188.834 133.627 188.343 133.465 187.925 133.161C187.508 132.857 187.182 132.424 186.99 131.919C186.798 131.413 186.747 130.857 186.845 130.32C186.943 129.783 187.185 129.29 187.54 128.903C187.895 128.516 188.348 128.252 188.841 128.145C189.333 128.038 189.844 128.093 190.308 128.303C190.772 128.512 191.168 128.867 191.447 129.322C191.726 129.777 191.875 130.312 191.875 130.86C191.875 131.594 191.608 132.298 191.131 132.817C190.655 133.336 190.009 133.627 189.336 133.627Z" fill="black"/>
<path opacity="0.1" d="M189.336 126.362C188.52 126.362 187.722 126.626 187.043 127.12C186.365 127.614 185.836 128.317 185.524 129.139C185.211 129.96 185.13 130.865 185.289 131.737C185.448 132.609 185.841 133.411 186.418 134.04C186.995 134.669 187.73 135.097 188.531 135.27C189.331 135.444 190.161 135.355 190.915 135.015C191.669 134.674 192.313 134.098 192.767 133.358C193.22 132.619 193.462 131.749 193.462 130.86C193.462 129.667 193.028 128.523 192.254 127.68C191.48 126.836 190.43 126.362 189.336 126.362ZM189.336 133.627C188.834 133.627 188.343 133.465 187.925 133.161C187.508 132.857 187.182 132.424 186.99 131.919C186.798 131.413 186.747 130.857 186.845 130.32C186.943 129.783 187.185 129.29 187.54 128.903C187.895 128.516 188.348 128.252 188.841 128.145C189.333 128.038 189.844 128.093 190.308 128.303C190.772 128.512 191.168 128.867 191.447 129.322C191.726 129.777 191.875 130.312 191.875 130.86C191.875 131.594 191.608 132.298 191.131 132.817C190.655 133.336 190.009 133.627 189.336 133.627Z" fill="#212121"/>
<path d="M173.465 122.903H189.336V140.022C189.336 140.62 189.118 141.193 188.73 141.616C188.343 142.038 187.817 142.276 187.268 142.276H175.533C174.985 142.276 174.459 142.038 174.071 141.616C173.683 141.193 173.465 140.62 173.465 140.022V122.903Z" fill="#00ADB5"/>
<path d="M206 142.276H0V149.887H206V142.276Z" fill="#E0E0E0"/>
<g opacity="0.7">
<path opacity="0.7" d="M135.497 91.3527C133.29 82.6184 120.773 76.2402 111.355 74.826C111.356 74.7616 111.359 74.6977 111.359 74.6329V67.1562C111.369 67.1522 111.38 67.1488 111.39 67.1448V66.8614C114.732 65.5066 117.748 63.3413 120.21 60.5293C122.672 57.7173 124.515 54.3321 125.6 50.6296C126.182 49.4826 126.688 48.292 127.116 47.0668C128.121 46.6678 128.88 44.8609 128.88 42.6897C128.884 41.947 128.789 41.2077 128.597 40.4951C128.72 39.3894 128.783 38.2766 128.785 37.1626C128.789 33.2686 128.042 29.4171 126.591 25.8582C125.141 22.2994 123.021 19.1126 120.367 16.5048C120.446 16.0574 120.473 15.6011 120.447 15.1465C120.234 11.5579 116.717 9.11985 113.421 8.95679C114.291 7.88028 114.864 6.55654 115.072 5.13946C115.279 3.72238 115.114 2.27017 114.594 0.951654C112.492 4.28883 108.177 4.64357 104.464 4.66982C106.066 3.99345 106.787 1.5735 105.855 2.28882e-05C101.974 5.67024 94.4072 6.72021 89.7906 11.6931C88.7848 12.7809 87.9419 14.0339 87.2926 15.4064C84.2924 18.0114 81.8701 21.3206 80.2061 25.0875C78.5422 28.8544 77.6795 32.9819 77.6823 37.1626C77.6844 38.2665 77.7462 39.3692 77.8673 40.4651C77.6694 41.1868 77.5708 41.9365 77.5747 42.6897C77.5747 44.8708 78.3411 46.6834 79.3534 47.0712C79.7826 48.3006 80.2916 49.4952 80.8765 50.6458C81.9576 54.3268 83.7884 57.6937 86.2319 60.4947C88.6754 63.2957 91.6684 65.4583 94.987 66.8206V74.6329C94.987 74.693 94.9901 74.7524 94.9912 74.8122C85.5375 76.2022 72.9206 82.6305 70.7323 91.4351C68.8426 99.0385 66.8255 107.389 65.8218 112.291C74.4246 118.879 92.4759 122.748 103.789 122.748C114.537 122.748 132.105 119.256 140.455 113.257C139.55 107.871 137.469 99.1537 135.497 91.3527Z" fill="url(#paint0_linear)"/>
</g>
<path d="M103.766 120.579C114.134 120.579 131.081 117.211 139.136 111.424C138.263 106.228 136.256 97.8187 134.354 90.2934C131.931 80.7095 116.641 74.0652 107.52 74.0652H98.7309C89.5815 74.0652 74.2695 80.7479 71.8774 90.3729C70.0545 97.7076 68.1086 105.763 67.1404 110.492C75.4392 116.847 92.8526 120.579 103.766 120.579Z" fill="#00ADB5"/>
<path d="M103.23 64.8823C116.843 64.8823 127.879 52.8548 127.879 38.0182C127.879 23.1815 116.843 11.154 103.23 11.154C89.6173 11.154 78.5818 23.1815 78.5818 38.0182C78.5818 52.8548 89.6173 64.8823 103.23 64.8823Z" fill="#72351C"/>
<path opacity="0.1" d="M95.275 60.3937H111.069V74.1644C111.069 76.447 110.237 78.6361 108.756 80.2502C107.275 81.8642 105.266 82.771 103.172 82.771H103.172C101.077 82.771 99.0689 81.8642 97.588 80.2502C96.107 78.6361 95.275 76.447 95.275 74.1644V60.3937H95.275Z" fill="black"/>
<path d="M97.5404 59.7561H108.803C109.404 59.7561 109.98 60.0163 110.405 60.4793C110.83 60.9423 111.069 61.5703 111.069 62.2252V73.5268C111.069 75.8094 110.237 77.9986 108.756 79.6126C107.275 81.2267 105.266 82.1335 103.172 82.1335H103.172C101.077 82.1335 99.0689 81.2267 97.5879 79.6126C96.107 77.9986 95.275 75.8094 95.275 73.5268V62.2252C95.275 61.5703 95.5137 60.9423 95.9385 60.4793C96.3634 60.0163 96.9396 59.7561 97.5404 59.7561Z" fill="#FDA57D"/>
<path opacity="0.1" d="M95.3043 66.8933C100.394 68.9661 105.997 68.983 111.098 66.9409V64.8263H95.3043V66.8933Z" fill="black"/>
<path d="M103.23 68.0459C115.733 68.0459 125.868 56.9996 125.868 43.3734C125.868 29.7472 115.733 18.701 103.23 18.701C90.728 18.701 80.5928 29.7472 80.5928 43.3734C80.5928 56.9996 90.728 68.0459 103.23 68.0459Z" fill="#FDA57D"/>
<path opacity="0.1" d="M87.1056 20.9312C87.1056 20.9312 96.6459 42.0375 123.558 29.7772L117.293 19.0688L106.186 14.7234L87.1056 20.9312Z" fill="black"/>
<path d="M87.1056 20.6208C87.1056 20.6208 96.6459 41.7271 123.558 29.4668L117.293 18.7584L106.186 14.413L87.1056 20.6208Z" fill="#72351C"/>
<path d="M87.0208 19.1949C87.6639 17.0244 88.7755 15.0538 90.2622 13.4487C94.7157 8.65146 102.015 7.6386 105.759 2.16874C106.658 3.68662 105.962 6.02106 104.417 6.67352C107.999 6.6482 112.162 6.30601 114.189 3.08675C114.69 4.35867 114.85 5.75956 114.65 7.12657C114.45 8.49358 113.897 9.77055 113.057 10.809C116.237 10.9663 119.63 13.3182 119.835 16.7799C119.972 19.0862 118.645 21.2698 116.906 22.5924C115.167 23.915 113.064 24.5222 110.993 25.0198C104.948 26.4723 83.0765 32.5604 87.0208 19.1949Z" fill="#72351C"/>
<path d="M125.867 43.5894H125.267L113.591 54.9185C102.342 49.1763 94.0829 54.9185 94.0829 54.9185L81.837 44.055L80.6022 44.2241C80.7696 50.6995 83.267 56.8434 87.5552 61.3291C91.8434 65.8148 97.5782 68.2824 103.521 68.199C109.465 68.1157 115.139 65.4881 119.32 60.8837C123.501 56.2792 125.853 50.0674 125.867 43.5894ZM103.196 59.2639C98.7921 59.2639 95.222 58.2911 95.222 57.0912C95.222 55.8913 98.7921 54.9185 103.196 54.9185C107.6 54.9185 111.17 55.8913 111.17 57.0912C111.17 58.2912 107.6 59.2639 103.196 59.2639Z" fill="#72351C"/>
<path d="M80.5838 47.6532C81.7468 47.6532 82.6896 45.7266 82.6896 43.3499C82.6896 40.9732 81.7468 39.0466 80.5838 39.0466C79.4207 39.0466 78.4779 40.9732 78.4779 43.3499C78.4779 45.7266 79.4207 47.6532 80.5838 47.6532Z" fill="#FDA57D"/>
<path d="M125.865 47.6532C127.028 47.6532 127.971 45.7266 127.971 43.3499C127.971 40.9732 127.028 39.0466 125.865 39.0466C124.702 39.0466 123.759 40.9732 123.759 43.3499C123.759 45.7266 124.702 47.6532 125.865 47.6532Z" fill="#FDA57D"/>
<g opacity="0.7">
<path opacity="0.7" d="M143.728 87.2942H62.272C60.5739 87.2942 59.1972 88.7946 59.1972 90.6454V138.925C59.1972 140.775 60.5739 142.276 62.272 142.276H143.728C145.426 142.276 146.803 140.775 146.803 138.925V90.6454C146.803 88.7946 145.426 87.2942 143.728 87.2942Z" fill="url(#paint1_linear)"/>
</g>
<path d="M139.525 88.3086H66.4748C63.332 88.3086 60.7843 91.0854 60.7843 94.5107V136.074C60.7843 139.499 63.332 142.276 66.4748 142.276H139.525C142.668 142.276 145.216 139.499 145.216 136.074V94.5107C145.216 91.0854 142.668 88.3086 139.525 88.3086Z" fill="#535461"/>
<path d="M103 118.406C104.578 118.406 105.857 117.012 105.857 115.292C105.857 113.573 104.578 112.179 103 112.179C101.422 112.179 100.143 113.573 100.143 115.292C100.143 117.012 101.422 118.406 103 118.406Z" fill="white"/>
<path d="M197.271 149.887H8.72883V153H197.271V149.887Z" fill="#E0E0E0"/>
<path opacity="0.1" d="M197.271 149.887H8.72883V150.924H197.271V149.887Z" fill="black"/>
<path opacity="0.1" d="M186.479 122.903V138.903C186.479 139.797 186.153 140.655 185.573 141.288C184.992 141.92 184.205 142.276 183.384 142.276H184.971C185.792 142.276 186.579 141.92 187.16 141.288C187.74 140.655 188.066 139.797 188.066 138.903V122.903H186.479Z" fill="black"/>
<path d="M176.597 110.007C176.329 110.057 176.027 110.136 175.896 110.395C175.688 110.806 176.065 111.27 176.41 111.553C177.046 112.075 177.716 112.588 178.148 113.317C178.581 114.045 178.716 115.063 178.244 115.761C177.627 116.673 176.155 116.869 176.012 117.992C175.921 118.712 176.492 119.327 177.071 119.689C178.501 120.581 180.344 120.819 181.379 122.216C181.808 121.256 182.766 120.701 183.721 120.464C184.676 120.227 185.668 120.245 186.637 120.084C186.949 120.032 187.301 119.928 187.441 119.619C187.712 119.02 186.94 118.302 187.206 117.701C187.409 117.244 188.004 117.279 188.439 117.096C189.147 116.798 189.439 115.805 189.238 115.007C189.037 114.209 188.47 113.586 187.873 113.075C186.265 111.698 184.331 110.888 182.375 110.305C181.465 110.034 180.397 109.609 179.452 109.568C178.54 109.528 177.5 109.839 176.597 110.007Z" fill="#E0E0E0"/>
<defs>
<linearGradient id="paint0_linear" x1="44894.1" y1="79799" x2="44894.1" y2="14607" gradientUnits="userSpaceOnUse">
<stop stop-color="#808080" stop-opacity="0.25"/>
<stop offset="0.53514" stop-color="#808080" stop-opacity="0.12"/>
<stop offset="1" stop-color="#808080" stop-opacity="0.1"/>
</linearGradient>
<linearGradient id="paint1_linear" x1="42611" y1="33933.9" x2="42611" y2="20854.1" gradientUnits="userSpaceOnUse">
<stop stop-color="#808080" stop-opacity="0.25"/>
<stop offset="0.53514" stop-color="#808080" stop-opacity="0.12"/>
<stop offset="1" stop-color="#808080" stop-opacity="0.1"/>
</linearGradient>
</defs>
</svg>
